<?xml version="1.0" encoding="utf-8"?>
<!-- Generator: Adobe Illustrator 26.0.0, SVG Export Plug-In . SVG Version: 6.00 Build 0)  -->
<svg version="1.1" id="Layer_1" xmlns="http://www.w3.org/2000/svg" xmlns:xlink="http://www.w3.org/1999/xlink" x="0px" y="0px"
	 viewBox="0 0 173 43" style="enable-background:new 0 0 173 43;" xml:space="preserve">
<style type="text/css">
	.st0{fill:#0C4D8E;}
	.st1{opacity:7.000000e-02;fill:url(#SVGID_1_);}
	.st2{fill:url(#SVGID_00000078040566293334891680000005959454924187928759_);}
	.st3{fill:url(#SVGID_00000033354291285527000660000017805003457749428883_);}
	.st4{fill:url(#SVGID_00000050642877156344086610000001209192435071331259_);}
	.st5{fill:url(#SVGID_00000102526661574752947490000010854144009134918541_);}
	.st6{fill:url(#SVGID_00000042007559156995509320000017581408922745107841_);}
	.st7{fill:url(#SVGID_00000075870333396527612740000004812166564877002147_);}
</style>
<g>
	<g>
		<path class="st0" d="M81.1,29l-2.9-10.5L74,28.2c-0.2,0.3-0.3,0.6-0.5,0.7c-0.2,0.2-0.5,0.3-0.8,0.3c-0.6,0-1.1-0.3-1.3-1L67,18.5
			L64.2,29h-2.6l3.9-14.1c0.2-0.7,0.6-1.1,1.3-1.1c0.3,0,0.5,0.1,0.8,0.2c0.2,0.2,0.4,0.4,0.5,0.7l4.6,10.6l4.6-10.6
			c0.2-0.6,0.7-0.9,1.3-0.9c0.6,0,1.1,0.4,1.3,1.1L83.7,29H81.1z"/>
		<path class="st0" d="M98,14h2.6v8.4c0,1.2-0.2,2.2-0.5,3c-0.3,0.9-0.8,1.6-1.4,2.1c-0.6,0.6-1.5,1-2.5,1.3c-1,0.3-2.3,0.4-3.7,0.4
			c-1.4,0-2.7-0.1-3.7-0.4c-1-0.3-1.9-0.7-2.5-1.3c-0.6-0.6-1.1-1.3-1.4-2.1c-0.3-0.9-0.5-1.9-0.5-3V14h2.7v8.4
			c0,0.8,0.1,1.4,0.3,1.9c0.2,0.5,0.5,1,0.9,1.3c0.4,0.3,1,0.6,1.7,0.8c0.7,0.2,1.6,0.2,2.6,0.2s1.9-0.1,2.6-0.2
			c0.7-0.2,1.3-0.4,1.7-0.8c0.4-0.3,0.7-0.8,0.9-1.3c0.2-0.5,0.3-1.2,0.3-1.9V14z"/>
		<path class="st0" d="M102.9,29V14h2.6v12.4h10.1V29H102.9z"/>
		<path class="st0" d="M117.5,29v-2.6h11.2c0.7,0,1.2-0.2,1.6-0.5c0.4-0.4,0.6-0.8,0.6-1.4c0-0.6-0.2-1.1-0.6-1.5
			c-0.4-0.3-0.9-0.5-1.6-0.5h-6.9c-0.7,0-1.3-0.1-1.9-0.3c-0.6-0.2-1.1-0.5-1.4-0.9c-0.4-0.4-0.7-0.8-0.9-1.4
			c-0.2-0.5-0.3-1.1-0.3-1.7c0-0.6,0.1-1.2,0.3-1.7c0.2-0.5,0.5-1,0.9-1.3c0.4-0.4,0.9-0.7,1.5-0.9c0.6-0.2,1.2-0.3,2-0.3h10.8v2.6
			h-10.8c-0.6,0-1.1,0.2-1.4,0.5c-0.3,0.3-0.5,0.8-0.5,1.4c0,0.6,0.2,1,0.5,1.3c0.3,0.3,0.8,0.5,1.4,0.5h6.9c1.5,0,2.7,0.4,3.5,1.1
			c0.8,0.7,1.2,1.8,1.2,3.3c0,0.6-0.1,1.2-0.3,1.8c-0.2,0.5-0.5,1-0.9,1.4c-0.4,0.4-0.9,0.7-1.5,0.9c-0.6,0.2-1.3,0.3-2.1,0.3H117.5
			z"/>
		<path class="st0" d="M146.9,23.1l-3.3-5.6L136.7,29h-3l8.6-14.4c0.2-0.3,0.3-0.5,0.5-0.6c0.2-0.2,0.5-0.2,0.7-0.2
			c0.3,0,0.5,0.1,0.7,0.2c0.2,0.2,0.4,0.4,0.5,0.6l8.6,14.4h-3.2l-2.2-3.8"/>
		<path class="st0" d="M157.6,18v11h-2.5V15.4c0-0.5,0.1-0.9,0.4-1.1c0.2-0.3,0.6-0.4,1-0.4c0.2,0,0.4,0,0.6,0.1
			c0.2,0.1,0.4,0.2,0.6,0.4l10.6,10.5v-11h2.5v13.7c0,0.5-0.1,0.9-0.4,1.2c-0.2,0.3-0.6,0.4-0.9,0.4c-0.4,0-0.8-0.2-1.2-0.6
			L157.6,18z"/>
	</g>
</g>
<radialGradient id="SVGID_1_" cx="-204.5686" cy="20926.0293" r="18.1896" gradientTransform="matrix(1.2383 0 0 0.1971 283.9186 -4085.8867)" gradientUnits="userSpaceOnUse">
	<stop  offset="0" style="stop-color:#000000"/>
	<stop  offset="0.1468" style="stop-color:#000000;stop-opacity:0.8532"/>
	<stop  offset="1" style="stop-color:#000000;stop-opacity:0"/>
</radialGradient>
<ellipse class="st1" cx="30.6" cy="38.9" rx="22.5" ry="3.6"/>
<g>
	
		<linearGradient id="SVGID_00000168817606209510677760000015033772120564743560_" gradientUnits="userSpaceOnUse" x1="7.3864" y1="30.6922" x2="24.7895" y2="8.2336">
		<stop  offset="0" style="stop-color:#35BEEF"/>
		<stop  offset="1" style="stop-color:#0C4D8E"/>
	</linearGradient>
	<polygon style="fill:url(#SVGID_00000168817606209510677760000015033772120564743560_);" points="14.2,33.1 3.4,33.2 22.1,0.5 
		27.6,9.8 	"/>
	
		<linearGradient id="SVGID_00000006709727184567176650000018171520810337531017_" gradientUnits="userSpaceOnUse" x1="3.7694" y1="32.801" x2="24.478" y2="5.6757">
		<stop  offset="0" style="stop-color:#0C4D8E"/>
		<stop  offset="1" style="stop-color:#35BEEF"/>
	</linearGradient>
	<polygon style="fill:url(#SVGID_00000006709727184567176650000018171520810337531017_);" points="3.4,33.2 22.1,0.5 27.6,9.8 	"/>
	
		<linearGradient id="SVGID_00000079457374820619707890000017120659728792119172_" gradientUnits="userSpaceOnUse" x1="29.9075" y1="30.42" x2="40.6993" y2="1.6419">
		<stop  offset="0" style="stop-color:#35BEEF"/>
		<stop  offset="1" style="stop-color:#0C4D8E"/>
	</linearGradient>
	<polygon style="fill:url(#SVGID_00000079457374820619707890000017120659728792119172_);" points="44.4,10 42.2,13.7 39.1,19 
		30.3,34 25.3,24.5 33.9,9.5 39,0.5 39,0.5 39,0.5 39,0.5 	"/>
	
		<linearGradient id="SVGID_00000109013519023364959600000006177226164595318920_" gradientUnits="userSpaceOnUse" x1="41.6068" y1="5.4566" x2="30.5234" y2="34.2348">
		<stop  offset="0" style="stop-color:#35BEEF"/>
		<stop  offset="1" style="stop-color:#0C4D8E"/>
	</linearGradient>
	<polygon style="fill:url(#SVGID_00000109013519023364959600000006177226164595318920_);" points="44.4,10 42.2,13.7 39.1,19 
		30.3,34 35.8,12.9 39,0.5 39,0.5 	"/>
	
		<linearGradient id="SVGID_00000010272227527888418590000010059813860704374692_" gradientUnits="userSpaceOnUse" x1="37.232" y1="-1.3023" x2="50.6489" y2="31.3648">
		<stop  offset="0" style="stop-color:#0C4D8E"/>
		<stop  offset="1" style="stop-color:#35BEEF"/>
	</linearGradient>
	<polygon style="fill:url(#SVGID_00000010272227527888418590000010059813860704374692_);" points="57.8,33.1 47,33.2 39.1,19 
		39,0.5 39,0.5 44.4,10 	"/>
	
		<linearGradient id="SVGID_00000041984293039396556220000004863770948051349399_" gradientUnits="userSpaceOnUse" x1="52.2917" y1="32.8644" x2="38.5899" y2="1.1852">
		<stop  offset="0" style="stop-color:#0C4D8E"/>
		<stop  offset="1" style="stop-color:#35BEEF"/>
	</linearGradient>
	<polygon style="fill:url(#SVGID_00000041984293039396556220000004863770948051349399_);" points="57.8,33.1 47,33.2 42.2,13.7 
		39,0.5 44.4,10 	"/>
</g>
</svg>
