<svg width="55" height="34" viewBox="0 0 55 34" fill="none" xmlns="http://www.w3.org/2000/svg">
<path d="M10.8 32.6L0 32.7L18.7 0L24.2 9.3L10.8 32.6Z" fill="url(#paint0_linear_259_5005)"/>
<path d="M0 32.7L18.7 0L24.2 9.3L0 32.7Z" fill="url(#paint1_linear_259_5005)"/>
<path d="M41 9.5L38.8 13.2L35.7 18.5L26.9 33.5L21.9 24L30.5 9L35.6 0L41 9.5Z" fill="url(#paint2_linear_259_5005)"/>
<path d="M41 9.5L38.8 13.2L35.7 18.5L26.9 33.5L32.4 12.4L35.6 0L41 9.5Z" fill="url(#paint3_linear_259_5005)"/>
<path d="M54.4 32.6L43.6 32.7L35.7 18.5L35.6 0L41 9.5L54.4 32.6Z" fill="url(#paint4_linear_259_5005)"/>
<path d="M54.4 32.6L43.6 32.7L38.8 13.2L35.6 0L41 9.5L54.4 32.6Z" fill="url(#paint5_linear_259_5005)"/>
<defs>
<linearGradient id="paint0_linear_259_5005" x1="3.9864" y1="30.1922" x2="21.3895" y2="7.7336" gradientUnits="userSpaceOnUse">
<stop stop-color="#35BEEF"/>
<stop offset="1" stop-color="#0C4D8E"/>
</linearGradient>
<linearGradient id="paint1_linear_259_5005" x1="0.3694" y1="32.301" x2="21.078" y2="5.1757" gradientUnits="userSpaceOnUse">
<stop stop-color="#0C4D8E"/>
<stop offset="1" stop-color="#35BEEF"/>
</linearGradient>
<linearGradient id="paint2_linear_259_5005" x1="26.5075" y1="29.92" x2="37.2993" y2="1.1419" gradientUnits="userSpaceOnUse">
<stop stop-color="#35BEEF"/>
<stop offset="1" stop-color="#0C4D8E"/>
</linearGradient>
<linearGradient id="paint3_linear_259_5005" x1="38.2068" y1="4.9566" x2="27.1234" y2="33.7348" gradientUnits="userSpaceOnUse">
<stop stop-color="#35BEEF"/>
<stop offset="1" stop-color="#0C4D8E"/>
</linearGradient>
<linearGradient id="paint4_linear_259_5005" x1="33.832" y1="-1.8023" x2="47.2489" y2="30.8648" gradientUnits="userSpaceOnUse">
<stop stop-color="#0C4D8E"/>
<stop offset="1" stop-color="#35BEEF"/>
</linearGradient>
<linearGradient id="paint5_linear_259_5005" x1="48.8917" y1="32.3644" x2="35.1899" y2="0.685201" gradientUnits="userSpaceOnUse">
<stop stop-color="#0C4D8E"/>
<stop offset="1" stop-color="#35BEEF"/>
</linearGradient>
</defs>
</svg>
