<svg width="173" height="43" viewBox="0 0 173 43" fill="none" xmlns="http://www.w3.org/2000/svg">
<path d="M81.1 28.9998L78.2 18.4998L74 28.1998C73.8 28.4998 73.7 28.7998 73.5 28.8998C73.3 29.0998 73 29.1998 72.7 29.1998C72.1 29.1998 71.6 28.8998 71.4 28.1998L67 18.4998L64.2 28.9998H61.6L65.5 14.8998C65.7 14.1998 66.1 13.7998 66.8 13.7998C67.1 13.7998 67.3 13.8998 67.6 13.9998C67.8 14.1998 68 14.3998 68.1 14.6998L72.7 25.2998L77.3 14.6998C77.5 14.0998 78 13.7998 78.6 13.7998C79.2 13.7998 79.7 14.1998 79.9 14.8998L83.7 28.9998H81.1Z" fill="white"/>
<path d="M98 14H100.6V22.4C100.6 23.6 100.4 24.6 100.1 25.4C99.8 26.3 99.3 27 98.7 27.5C98.1 28.1 97.2 28.5 96.2 28.8C95.2 29.1 93.9 29.2 92.5 29.2C91.1 29.2 89.8 29.1 88.8 28.8C87.8 28.5 86.9 28.1 86.3 27.5C85.7 26.9 85.2 26.2 84.9 25.4C84.6 24.5 84.4 23.5 84.4 22.4V14H87.1V22.4C87.1 23.2 87.2 23.8 87.4 24.3C87.6 24.8 87.9 25.3 88.3 25.6C88.7 25.9 89.3 26.2 90 26.4C90.7 26.6 91.6 26.6 92.6 26.6C93.6 26.6 94.5 26.5 95.2 26.4C95.9 26.2 96.5 26 96.9 25.6C97.3 25.3 97.6 24.8 97.8 24.3C98 23.8 98.1 23.1 98.1 22.4V14H98Z" fill="white"/>
<path d="M102.9 29V14H105.5V26.4H115.6V29H102.9Z" fill="white"/>
<path d="M117.5 29V26.4H128.7C129.4 26.4 129.9 26.2 130.3 25.9C130.7 25.5 130.9 25.1 130.9 24.5C130.9 23.9 130.7 23.4 130.3 23C129.9 22.7 129.4 22.5 128.7 22.5H121.8C121.1 22.5 120.5 22.4 119.9 22.2C119.3 22 118.8 21.7 118.5 21.3C118.1 20.9 117.8 20.5 117.6 19.9C117.4 19.4 117.3 18.8 117.3 18.2C117.3 17.6 117.4 17 117.6 16.5C117.8 16 118.1 15.5 118.5 15.2C118.9 14.8 119.4 14.5 120 14.3C120.6 14.1 121.2 14 122 14H132.8V16.6H122C121.4 16.6 120.9 16.8 120.6 17.1C120.3 17.4 120.1 17.9 120.1 18.5C120.1 19.1 120.3 19.5 120.6 19.8C120.9 20.1 121.4 20.3 122 20.3H128.9C130.4 20.3 131.6 20.7 132.4 21.4C133.2 22.1 133.6 23.2 133.6 24.7C133.6 25.3 133.5 25.9 133.3 26.5C133.1 27 132.8 27.5 132.4 27.9C132 28.3 131.5 28.6 130.9 28.8C130.3 29 129.6 29.1 128.8 29.1H117.5V29Z" fill="white"/>
<path d="M146.9 23.0998L143.6 17.4998L136.7 28.9998H133.7L142.3 14.5998C142.5 14.2998 142.6 14.0998 142.8 13.9998C143 13.7998 143.3 13.7998 143.5 13.7998C143.8 13.7998 144 13.8998 144.2 13.9998C144.4 14.1998 144.6 14.3998 144.7 14.5998L153.3 28.9998H150.1L147.9 25.1998" fill="white"/>
<path d="M157.6 17.9999V28.9999H155.1V15.3999C155.1 14.8999 155.2 14.4999 155.5 14.2999C155.7 13.9999 156.1 13.8999 156.5 13.8999C156.7 13.8999 156.9 13.8999 157.1 13.9999C157.3 14.0999 157.5 14.1999 157.7 14.3999L168.3 24.8999V13.8999H170.8V27.5999C170.8 28.0999 170.7 28.4999 170.4 28.7999C170.2 29.0999 169.8 29.1999 169.5 29.1999C169.1 29.1999 168.7 28.9999 168.3 28.5999L157.6 17.9999Z" fill="white"/>
<path opacity="0.07" d="M30.6 42.4998C43.0264 42.4998 53.1 40.888 53.1 38.8998C53.1 36.9116 43.0264 35.2998 30.6 35.2998C18.1736 35.2998 8.09998 36.9116 8.09998 38.8998C8.09998 40.888 18.1736 42.4998 30.6 42.4998Z" fill="url(#paint0_radial_261_5012)"/>
<path d="M14.2 33.1L3.40002 33.2L22.1 0.5L27.6 9.8L14.2 33.1Z" fill="url(#paint1_linear_261_5012)"/>
<path d="M3.40002 33.2L22.1 0.5L27.6 9.8L3.40002 33.2Z" fill="url(#paint2_linear_261_5012)"/>
<path d="M44.4001 10L42.2001 13.7L39.1 19L30.3 34L25.3 24.5L33.9001 9.5L39 0.5L44.4001 10Z" fill="url(#paint3_linear_261_5012)"/>
<path d="M44.4001 10L42.2001 13.7L39.1 19L30.3 34L35.8 12.9L39 0.5L44.4001 10Z" fill="url(#paint4_linear_261_5012)"/>
<path d="M57.8 33.1L47 33.2L39.1 19L39 0.5L44.4 10L57.8 33.1Z" fill="url(#paint5_linear_261_5012)"/>
<path d="M57.8 33.1L47 33.2L42.2 13.7L39 0.5L44.4 10L57.8 33.1Z" fill="url(#paint6_linear_261_5012)"/>
<defs>
<radialGradient id="paint0_radial_261_5012" cx="0" cy="0" r="1" gradientUnits="userSpaceOnUse" gradientTransform="translate(30.6013 38.6335) scale(22.5242 3.58517)">
<stop/>
<stop offset="0.1468" stop-opacity="0.8532"/>
<stop offset="1" stop-opacity="0"/>
</radialGradient>
<linearGradient id="paint1_linear_261_5012" x1="7.38642" y1="30.6922" x2="24.7895" y2="8.2336" gradientUnits="userSpaceOnUse">
<stop stop-color="#35BEEF"/>
<stop offset="1" stop-color="#0C4D8E"/>
</linearGradient>
<linearGradient id="paint2_linear_261_5012" x1="3.76942" y1="32.801" x2="24.478" y2="5.6757" gradientUnits="userSpaceOnUse">
<stop stop-color="#0C4D8E"/>
<stop offset="1" stop-color="#35BEEF"/>
</linearGradient>
<linearGradient id="paint3_linear_261_5012" x1="29.9075" y1="30.42" x2="40.6993" y2="1.6419" gradientUnits="userSpaceOnUse">
<stop stop-color="#35BEEF"/>
<stop offset="1" stop-color="#0C4D8E"/>
</linearGradient>
<linearGradient id="paint4_linear_261_5012" x1="41.6069" y1="5.4566" x2="30.5235" y2="34.2348" gradientUnits="userSpaceOnUse">
<stop stop-color="#35BEEF"/>
<stop offset="1" stop-color="#0C4D8E"/>
</linearGradient>
<linearGradient id="paint5_linear_261_5012" x1="37.232" y1="-1.3023" x2="50.6489" y2="31.3648" gradientUnits="userSpaceOnUse">
<stop stop-color="#0C4D8E"/>
<stop offset="1" stop-color="#35BEEF"/>
</linearGradient>
<linearGradient id="paint6_linear_261_5012" x1="52.2917" y1="32.8644" x2="38.5899" y2="1.1852" gradientUnits="userSpaceOnUse">
<stop stop-color="#0C4D8E"/>
<stop offset="1" stop-color="#35BEEF"/>
</linearGradient>
</defs>
</svg>
