<svg width="55" height="34" viewBox="0 0 55 34" fill="none" xmlns="http://www.w3.org/2000/svg">
<path d="M11.2 33.1L0.400024 33.2L19.1 0.5L24.6 9.8L11.2 33.1Z" fill="white"/>
<path d="M0.400024 33.2L19.1 0.5L24.6 9.8L0.400024 33.2Z" fill="white"/>
<path d="M41.4001 10L39.2001 13.7L36.1 19L27.3 34L22.3 24.5L30.9001 9.5L36 0.5L41.4001 10Z" fill="white"/>
<path d="M41.4001 10L39.2001 13.7L36.1 19L27.3 34L32.8 12.9L36 0.5L41.4001 10Z" fill="white"/>
<path d="M54.8 33.1L44 33.2L36.1 19L36 0.5L41.4 10L54.8 33.1Z" fill="white"/>
<path d="M54.8 33.1L44 33.2L39.2 13.7L36 0.5L41.4 10L54.8 33.1Z" fill="white"/>
</svg>
